<?xml version="1.0" encoding="UTF-8"?>
<svg id="Layer_2" data-name="Layer 2" xmlns="http://www.w3.org/2000/svg" width="451.28" height="457.18" viewBox="0 0 451.28 457.18">
  <defs>
    <style>
      .cls-1 {
        fill: #fefdfd;
      }

      .cls-2 {
        fill: #252122;
      }

      .cls-3 {
        fill: #bcbdbf;
      }
    </style>
  </defs>
  <g id="Layer_1-2" data-name="Layer 1">
    <path class="cls-2" d="M450.55,408.25c.1-.86.22-1.73.36-2.6,0-.01,0-.02,0-.03-.03-1.3,0-2.62.12-3.95-.26-1.23,0-2.76,0-3.86-1.2-114.23.94-228.54.02-342.77-.14-26.71-21.41-49.7-47.5-53.78C289.29-1.28,174.74.94,60.37.14,27.66.7,2.27,22.34,0,55.51l.06,349.26c2.02,18.26,12.17,35.43,28.23,44.61,6.46,3.69,13,4.92,19.65,7.79h353.22c20.49-3.8,39.28-16.65,46.66-36.66.85-2.3,1.39-4.64,1.96-6.97.14-1.76.4-3.53.78-5.3ZM111.79,395.31c-.04,14.62.03,29.29,0,43.9h-61.36c-1.16,0-9.85-3.58-11.52-4.45-26.85-13.91-20.72-43.94-20.91-69.39-.79-103.91.59-207.88,0-311.81,1.36-17.71,19.5-35.43,37.41-35.43h26.44v234.99c0,3.91,10.08,10.48,13.47,10.48h16.46c-.09,43.89.12,87.83,0,131.71ZM219.56,395.31c-.04,14.62.03,29.29,0,43.9h-92.8c-.03-14.62.04-29.29,0-43.9-.12-43.89.1-87.83,0-131.72,7.85.02,16.58,1.01,22.99-4.45.9-.77,3.96-4.26,3.96-5.02V19.63c0-.11,1.39-1.5,1.5-1.5h34.42v233.99c0,4.7,9.61,11.47,13.47,11.47h16.46c-.09,43.89.12,87.83,0,131.71ZM328.32,395.31c-.04,14.62.03,29.29,0,43.9h-93.79c-.03-14.62.04-29.29,0-43.9-.12-43.89.1-87.83,0-131.72,7.85.02,16.58,1.01,22.99-4.45.9-.77,3.96-4.26,3.96-5.02V19.63c0-.11,1.39-1.5,1.5-1.5h36.42v232.99c0,4.74,9.23,12.47,13.47,12.47h15.47c-.09,43.89.12,87.83,0,131.71ZM418.62,431.24c-2.51,1.93-14.48,7.98-16.96,7.98h-59.37c-.03-14.62.04-29.29,0-43.9-.11-39.76-2.89-86.32-.04-125.27.16-2.24.89-4.25,1.04-6.45h14.47c5.1,0,14.47-6.72,14.47-12.47V18.14h24.45c15.83,0,33.14,15.31,36.17,30.69,1.54,105.25,2.24,211.15,1.25,316.56-.21,22.68,4.74,50.28-15.47,65.86Z"/>
    <path class="cls-1" d="M18,365.38c-.79-103.91.59-207.88,0-311.81,1.36-17.71,19.5-35.43,37.41-35.43h26.44v234.99c0,3.91,10.08,10.48,13.47,10.48h16.46c-.09,43.89.12,87.83,0,131.71-34.53-1.01-70.81,7.9-90.99-27.3-.77-1.34-.32-3.19-2.8-2.64Z"/>
    <path class="cls-1" d="M434.08,365.38c-4.24,1.66-6.03,7.88-9,11.45-20.74,25.01-54.14,17.36-82.8,18.48-.11-39.76-2.89-86.32-.04-125.27.16-2.24.89-4.25,1.04-6.45h14.47c5.1,0,14.47-6.72,14.47-12.47V18.14h24.45c15.83,0,33.14,15.31,36.17,30.69,1.54,105.25,2.24,211.15,1.25,316.56Z"/>
    <path class="cls-1" d="M234.52,395.31c-.12-43.89.1-87.83,0-131.72,7.85.02,16.58,1.01,22.99-4.45.9-.77,3.96-4.26,3.96-5.02V19.63c0-.11,1.39-1.5,1.5-1.5h36.42v232.99c0,4.74,9.23,12.47,13.47,12.47h15.47c-.09,43.89.12,87.83,0,131.71h-93.79Z"/>
    <path class="cls-1" d="M126.76,395.31c-.12-43.89.1-87.83,0-131.72,7.85.02,16.58,1.01,22.99-4.45.9-.77,3.96-4.26,3.96-5.02V19.63c0-.11,1.39-1.5,1.5-1.5h34.42v233.99c0,4.7,9.61,11.47,13.47,11.47h16.46c-.09,43.89.12,87.83,0,131.71h-92.8Z"/>
    <path class="cls-3" d="M18,365.38c2.48-.55,2.03,1.3,2.8,2.64,20.18,35.19,56.46,26.29,90.99,27.3-.04,14.62.03,29.29,0,43.9h-61.36c-1.16,0-9.85-3.58-11.52-4.45-26.85-13.91-20.72-43.94-20.91-69.39Z"/>
    <path class="cls-3" d="M434.08,365.38c-.21,22.68,4.74,50.28-15.47,65.86-2.51,1.93-14.48,7.98-16.96,7.98h-59.37c-.03-14.62.04-29.29,0-43.9,28.65-1.12,62.05,6.53,82.8-18.48,2.97-3.58,4.76-9.79,9-11.45Z"/>
    <path class="cls-3" d="M328.32,395.31c-.04,14.62.03,29.29,0,43.9h-93.79c-.03-14.62.04-29.29,0-43.9h93.79Z"/>
    <path class="cls-3" d="M219.56,395.31c-.04,14.62.03,29.29,0,43.9h-92.8c-.03-14.62.04-29.29,0-43.9h92.8Z"/>
  </g>
</svg>